# Blender 5.0.0
# www.blender.org
mtllib curd_separator.mtl
o output
v 0.000000 0.000000 1.000000
v 0.000000 1.000000 1.000000
v 0.000000 0.000000 0.000000
v 0.000000 1.000000 0.000000
v 1.000000 0.000000 1.000000
v 1.000000 1.000000 1.000000
v 1.000000 0.000000 0.000000
v 1.000000 1.000000 0.000000
vn -1.0000 -0.0000 -0.0000
vn -0.0000 -0.0000 -1.0000
vn 1.0000 -0.0000 -0.0000
vn -0.0000 -0.0000 1.0000
vn -0.0000 -1.0000 -0.0000
vn -0.0000 1.0000 -0.0000
vt 0.374436 0.499751
vt 0.250908 0.624039
vt 0.250908 0.499751
vt 0.625000 0.250000
vt 0.375000 0.500000
vt 0.375000 0.250000
vt 0.373659 0.500422
vt 0.251341 0.624578
vt 0.251341 0.500422
vt 0.375745 0.749562
vt 0.499255 0.625438
vt 0.375745 0.625438
vt 0.875325 0.497720
vt 0.749675 0.622397
vt 0.749675 0.497720
vt 0.374252 0.500254
vt 0.250748 0.624746
vt 0.250748 0.500254
vt 0.499255 0.749562
vt 0.374252 0.624746
vt 0.374436 0.624039
vt 0.373659 0.624578
vt 0.625000 0.500000
vt 0.875325 0.622397
s 0
usemtl Material.003
f 2/1/1 3/2/1 1/3/1
f 4/4/2 7/5/2 3/6/2
f 8/7/3 5/8/3 7/9/3
f 6/10/4 1/11/4 5/12/4
f 4/16/6 6/17/6 8/18/6
f 6/10/4 2/19/4 1/11/4
f 4/16/6 2/20/6 6/17/6
f 2/1/1 4/21/1 3/2/1
f 8/7/3 6/22/3 5/8/3
f 4/4/2 8/23/2 7/5/2
usemtl base
f 7/13/5 1/14/5 3/15/5
f 7/13/5 5/24/5 1/14/5
o RS_controller
v 1.000000 1.000000 0.999997
v 1.000000 2.000000 0.999997
v 1.000000 1.000000 0.200001
v 1.000000 2.000000 0.200001
v 2.000000 1.000000 0.999997
v 2.000000 2.000000 0.999997
v 2.000000 1.000000 0.200001
v 2.000000 2.000000 0.200001
vn -1.0000 -0.0000 -0.0000
vn -0.0000 -0.0000 -1.0000
vn 1.0000 -0.0000 -0.0000
vn -0.0000 -0.0000 1.0000
vn -0.0000 -1.0000 -0.0000
vn -0.0000 1.0000 -0.0000
vt 0.703211 0.718681
vt 0.640539 0.609444
vt 0.703211 0.609444
vt 0.374955 0.500445
vt 0.250045 0.624555
vt 0.250045 0.500445
vt 0.640619 0.609259
vt 0.703268 0.718716
vt 0.640619 0.718716
vt 0.750213 0.625029
vt 0.875000 0.500245
vt 0.750213 0.500245
vt 0.703222 0.718568
vt 0.640528 0.609557
vt 0.703222 0.609557
vt 0.640625 0.609375
vt 0.703364 0.718756
vt 0.640625 0.718756
vt 0.875000 0.625029
vt 0.703364 0.609375
vt 0.640539 0.718681
vt 0.703268 0.609259
vt 0.374955 0.624555
vt 0.640528 0.718568
s 0
usemtl Material.003
f 10/25/7 11/26/7 9/27/7
f 12/28/8 15/29/8 11/30/8
f 16/31/9 13/32/9 15/33/9
f 14/34/10 9/35/10 13/36/10
f 15/37/11 9/38/11 11/39/11
f 12/40/12 14/41/12 16/42/12
f 14/34/10 10/43/10 9/35/10
f 12/40/12 10/44/12 14/41/12
f 10/25/7 12/45/7 11/26/7
f 16/31/9 14/46/9 13/32/9
f 12/28/8 16/47/8 15/29/8
f 15/37/11 13/48/11 9/38/11
o RS_holder_2
v 1.800263 1.000000 0.800000
v 1.800263 1.000000 0.400000
v 1.600043 1.000000 0.800000
v 1.600043 1.000000 0.400000
v 1.800263 0.500000 0.600000
v 1.800263 0.500000 0.800000
v 1.700153 0.500000 0.400000
v 1.800263 0.500000 0.400000
v 1.600043 0.500000 0.600000
v 1.600043 0.500000 0.400000
v 1.700153 0.500000 0.800000
v 1.600043 0.500000 0.800000
v 1.800000 0.500000 0.800000
v 1.600043 0.500000 0.600043
vn 1.0000 -0.0000 -0.0000
vn -0.0000 -0.0000 -1.0000
vn -1.0000 -0.0000 -0.0000
vn -0.0000 -0.0000 1.0000
vn -0.0000 -1.0000 -0.0000
vt 0.659782 0.483630
vt 0.639918 0.359145
vt 0.639918 0.483630
vt 0.679612 0.469552
vt 0.691509 0.469552
vt 0.679612 0.330550
vt 0.679805 0.483630
vt 0.679805 0.359857
vt 0.691509 0.469552
vt 0.679663 0.330736
vt 0.679663 0.469552
vt 0.875000 0.500000
vt 0.625000 0.750000
vt 0.625000 0.500000
vt 0.679647 0.359145
vt 0.679647 0.483630
vt 0.703355 0.330736
vt 0.703324 0.469552
vt 0.703406 0.330550
vt 0.703406 0.469552
vt 0.659778 0.483630
vt 0.639760 0.483630
vt 0.875000 0.750000
vt 0.650212 0.949688
vt 0.675202 0.949688
vt 0.662707 0.924745
vt 0.662707 0.974632
vt 0.675202 0.949693
vt 0.650245 0.974631
vt 0.703355 0.469552
vt 0.639760 0.359857
vt 0.650212 0.974631
vt 0.650245 0.974631
vt 0.675202 0.949694
vt 0.675202 0.924745
vt 0.650212 0.924745
vt 0.675202 0.974631
s 0
usemtl Material.003
f 21/49/13 17/50/13 22/51/13
f 24/52/14 23/53/14 18/54/14
f 26/55/15 25/49/15 20/56/15
f 27/57/16 19/58/16 28/59/16
f 18/60/17 19/61/17 20/62/17
f 18/63/13 21/49/13 24/64/13
f 17/65/16 27/57/16 29/66/16
f 20/67/14 23/53/14 26/68/14
f 20/56/15 30/69/15 28/70/15
f 18/60/17 17/71/17 19/61/17
f 21/72/17 25/73/17 23/74/17
f 27/75/17 30/76/17 29/77/17
f 18/63/13 17/50/13 21/49/13
f 29/66/16 22/78/16 17/65/16
f 17/65/16 19/58/16 27/57/16
f 20/67/14 18/54/14 23/53/14
f 28/70/15 19/79/15 20/56/15
f 20/56/15 25/49/15 30/69/15
f 21/72/17 22/80/17 29/81/17
f 29/81/17 30/82/17 25/73/17
f 25/73/17 26/83/17 23/74/17
f 23/74/17 24/84/17 21/72/17
f 21/72/17 29/81/17 25/73/17
f 27/75/17 28/85/17 30/76/17
o Cube
v -1.000000 0.000000 1.000000
v 0.000000 0.000000 1.000000
v -1.000000 0.500000 1.000000
v 0.000000 0.000000 0.000000
v 2.000000 0.000000 1.000000
v 1.000000 0.000000 1.000000
v 2.000000 0.500000 1.000000
v 1.000000 0.000000 0.000000
v 0.000000 0.500000 1.000000
v 0.000000 0.500000 0.500000
v 0.000000 0.500000 0.000000
v 1.000000 0.500000 0.000000
v 1.000000 0.500000 0.500000
v 1.000000 0.500000 1.000000
v 0.500000 0.500000 0.000000
v 0.000000 0.000000 0.000000
v 0.000000 0.166667 1.000000
v 0.000000 0.000000 0.000000
v 1.000000 0.333333 1.000000
v -1.000000 0.168333 -0.990000
v -1.000000 0.000000 -0.990000
v -0.495099 0.500000 -0.990000
v -1.000000 0.500000 -0.990000
v 2.000000 0.166717 -0.000300
v 2.000000 0.000000 -0.000300
v 0.000101 0.000000 -0.000300
v 0.000300 0.000000 -0.000300
v 0.000101 0.000000 -0.990000
v 1.500100 0.500000 -0.000300
v 0.999700 0.500000 -0.000300
v 2.000000 0.500000 -0.000300
v 0.500100 0.500000 -0.000300
v 0.000101 0.500000 -0.000300
v 0.000101 0.500000 -0.990000
v 0.000101 0.500000 -0.500250
v 1.000101 0.000000 -0.000300
v 1.000099 0.000000 -0.000300
v 0.000101 0.009703 -0.990000
v 0.000101 0.010200 -0.990000
vn -1.0000 -0.0000 -0.0000
vn 1.0000 -0.0000 -0.0000
vn -0.0000 -0.0000 1.0000
vn -0.0000 -1.0000 -0.0000
vn -0.0000 1.0000 -0.0000
vn -0.0000 -0.0000 -1.0000
vt 0.000311 0.124120
vt 0.248648 0.103671
vt 0.248648 0.124120
vt 0.375326 0.124610
vt 0.250071 0.124610
vt 0.250071 0.104030
vt 0.373350 0.124964
vt 0.249450 0.124964
vt 0.249450 0.104155
vt 0.125550 0.083345
vt 0.001650 0.124964
vt 0.001650 0.062536
vt 0.749547 0.498962
vt 0.749535 0.498999
vt 0.623604 0.377231
vt 0.687676 0.874821
vt 0.625283 0.999575
vt 0.625283 0.874821
vt 0.750094 0.874858
vt 0.750132 0.874821
vt 0.249450 0.104155
vt 0.373350 0.062536
vt 0.125550 0.062536
vt 0.125550 0.083345
vt 0.250071 0.104030
vt 0.375326 0.062890
vt 0.000311 0.063380
vt 0.248648 0.063380
vt 0.248648 0.103671
vt 0.749535 0.621998
vt 0.623604 0.621998
vt 0.749535 0.498999
vt 0.875466 0.498999
vt 0.875478 0.498962
vt 0.875478 0.498962
vt 0.271496 0.499751
vt 0.250908 0.624039
vt 0.312672 0.561895
vt 0.500000 0.250000
vt 0.375000 0.250000
vt 0.375000 0.500000
vt 0.251341 0.500422
vt 0.312500 0.562500
vt 0.312500 0.500422
vt 0.312672 0.624039
vt 0.292114 0.624578
vt 0.312500 0.624578
vt 0.500000 0.500000
vt 0.500000 0.375000
vt 0.312475 0.234367
vt 0.372960 0.188422
vt 0.372960 0.188376
vt 0.372960 0.188376
vt 0.250806 0.187466
vt 0.250806 0.203256
vt 0.124950 0.562500
vt 0.125000 0.500000
vt 0.062500 0.562500
vt 0.187500 0.562500
vt 0.126275 0.501275
vt 0.126275 0.562500
vt 0.000025 0.500000
vt 0.000000 0.562500
vt 0.062500 0.562500
vt 0.249988 0.520840
vt 0.249988 0.500000
vt 0.250000 0.500000
vt 0.126275 0.501213
vt 0.125550 0.124964
vt 0.749572 0.498962
vt 0.749547 0.377231
vt 0.874893 0.812469
vt 0.874893 0.751389
vt 0.936700 0.751389
vt 0.999717 0.751389
vt 0.999717 0.999575
vt 0.874906 0.999575
vt 0.874906 0.937217
vt 0.874906 0.874858
vt 0.874893 0.874821
vt 0.812488 0.874821
vt 0.812500 0.874858
vt 0.750094 0.937217
vt 0.750094 0.999575
vt 0.249450 0.062536
vt 0.250071 0.062890
vt 1.001396 0.498962
vt 1.001396 0.621998
vt 0.875465 0.621998
vt 0.749535 0.498999
vt 0.749572 0.498962
vt 0.250908 0.499751
vt 0.312672 0.499751
vt 0.251341 0.624578
vt 0.372984 0.234349
vt 0.250806 0.234367
vt 0.372960 0.187466
vt 0.125000 0.500000
vt 0.000000 0.500000
vt 0.125000 0.500000
vt 0.249988 0.562500
vt 0.250000 0.562500
vt 0.126275 0.500000
s 0
usemtl base
f 31/86/18 50/87/18 51/88/18
f 35/89/19 55/90/19 54/91/19
f 31/92/20 32/93/20 47/94/20
f 49/95/20 35/96/20 37/97/20
f 56/98/21 34/99/21 51/100/21
f 59/101/22 37/102/22 61/103/22
f 42/104/22 37/102/22 60/105/22
f 47/106/20 33/107/20 31/92/20
f 37/97/20 44/108/20 49/109/20
f 54/110/19 37/111/19 35/89/19
f 33/112/18 53/113/18 50/114/18
f 32/115/21 31/116/21 46/117/21
f 38/118/21 67/119/21 66/120/21
f 47/121/19 46/122/19 40/123/19
f 41/124/20 48/125/20 38/126/20
f 38/127/18 43/128/18 42/129/18
f 34/122/19 41/130/19 40/123/19
f 43/128/18 49/131/18 44/132/18
f 38/126/20 42/133/20 45/134/20
f 52/135/23 69/136/23 68/137/23
f 68/138/23 51/139/23 50/140/23
f 60/141/23 66/142/23 62/143/23
f 65/144/19 69/145/19 64/146/19
f 57/147/23 63/148/23 62/149/23
f 59/144/23 54/150/23 55/151/23
f 56/152/19 68/153/19 65/144/19
f 31/86/18 33/112/18 50/87/18
f 49/95/20 36/154/20 35/96/20
f 56/98/21 57/155/21 48/99/21
f 34/99/21 46/99/21 31/116/21
f 56/98/21 48/99/21 34/99/21
f 51/100/21 58/156/21 56/98/21
f 34/99/21 31/116/21 51/100/21
f 59/101/22 60/105/22 37/102/22
f 65/157/22 64/158/22 52/159/22
f 52/159/22 53/160/22 33/161/22
f 33/161/22 39/162/22 40/163/22
f 33/161/22 40/163/22 41/164/22
f 65/157/22 52/159/22 33/161/22
f 63/165/22 65/157/22 33/161/22
f 63/165/22 33/161/22 41/164/22
f 62/166/22 63/165/22 41/164/22
f 62/166/22 41/164/22 45/167/22
f 43/168/22 44/169/22 37/102/22
f 62/166/22 45/167/22 42/104/22
f 42/104/22 43/168/22 37/102/22
f 60/105/22 62/166/22 42/104/22
f 47/106/20 39/170/20 33/107/20
f 54/110/19 61/171/19 37/111/19
f 55/172/21 35/173/21 36/174/21
f 38/118/21 48/175/21 57/176/21
f 55/172/21 36/174/21 38/118/21
f 66/120/21 55/172/21 38/118/21
f 38/118/21 57/176/21 67/119/21
f 47/121/19 32/177/19 46/122/19
f 46/122/19 34/122/19 40/123/19
f 40/123/19 39/178/19 47/121/19
f 38/126/20 45/134/20 41/124/20
f 41/124/20 34/125/20 48/125/20
f 38/127/18 36/179/18 43/128/18
f 43/128/18 36/179/18 49/131/18
f 52/135/23 64/180/23 69/136/23
f 53/181/23 52/135/23 68/138/23
f 68/138/23 58/182/23 51/139/23
f 50/140/23 53/181/23 68/138/23
f 60/141/23 59/144/23 66/142/23
f 66/142/23 67/183/23 62/143/23
f 62/149/23 67/142/23 57/147/23
f 57/147/23 56/184/23 63/148/23
f 55/151/23 66/185/23 59/144/23
f 59/144/23 61/186/23 54/150/23
f 65/144/19 63/187/19 56/152/19
f 56/152/19 58/188/19 68/153/19
f 68/153/19 69/145/19 65/144/19
o power
v -1.000099 0.000000 -0.990000
v -1.000099 2.000000 -0.990000
v -1.000099 0.000000 -2.000000
v -1.000099 2.000000 -2.000000
v 0.009901 0.000000 -0.990000
v 0.009901 2.000000 -0.990000
v 0.009901 0.000000 -2.000000
v 0.009901 2.000000 -2.000000
v -1.000099 1.000000 -0.990000
v 0.009901 1.000000 -0.990000
v -1.000099 1.000000 -2.000000
v 0.009901 1.000000 -2.000000
vn -0.0000 -0.0000 -1.0000
vn -0.0000 -0.0000 1.0000
vn 1.0000 -0.0000 -0.0000
vn -0.0000 -1.0000 -0.0000
vn -0.0000 1.0000 -0.0000
vn -1.0000 -0.0000 -0.0000
vt 0.125788 0.281231
vt -0.000788 0.281269
vt 0.125737 0.188061
vt 0.374206 0.281231
vt 0.250794 0.281269
vt 0.374157 0.187466
vt 0.500000 0.500000
vt 0.625000 0.750000
vt 0.500000 0.750000
vt 0.123985 0.623395
vt -0.000450 0.498675
vt -0.000450 0.623395
vt 0.250326 0.500074
vt 0.124674 0.624926
vt 0.124674 0.500074
vt 0.249107 0.281231
vt 0.125893 0.281269
vt 0.249058 0.187909
vt 0.374206 0.375034
vt 0.250843 0.375034
vt 0.250794 0.187466
vt 0.249107 0.374591
vt 0.125942 0.374591
vt 0.125893 0.187909
vt 0.125788 0.374439
vt -0.000737 0.374439
vt -0.000788 0.188061
vt 0.123985 0.498675
vt 0.250326 0.624926
vt 0.375000 0.750000
vt 0.375000 0.500000
vt 0.625000 0.500000
s 0
usemtl Material.003
f 80/189/24 81/190/24 72/191/24
f 79/192/25 78/193/25 74/194/25
f 81/195/26 75/196/26 79/197/26
f 73/201/28 75/202/28 77/203/28
f 78/204/29 80/205/29 70/206/29
f 79/192/25 75/207/25 71/208/25
f 78/193/25 70/209/25 74/194/25
f 79/192/25 71/208/25 78/193/25
f 78/204/29 71/210/29 73/211/29
f 80/205/29 72/212/29 70/206/29
f 78/204/29 73/211/29 80/205/29
f 80/189/24 73/213/24 77/214/24
f 81/190/24 76/215/24 72/191/24
f 80/189/24 77/214/24 81/190/24
f 73/201/28 71/217/28 75/202/28
f 74/218/26 76/219/26 81/195/26
f 81/195/26 77/220/26 75/196/26
f 79/197/26 74/218/26 81/195/26
usemtl base
f 76/198/27 70/199/27 72/200/27
f 76/198/27 74/216/27 70/199/27
o tank
v 0.000101 -0.000001 -0.000300
v 0.000101 2.000001 -0.000300
v 0.000101 -0.000001 -2.000100
v 0.000101 2.000001 -2.000100
v 2.000099 -0.000001 -0.000300
v 2.000099 2.000001 -0.000300
v 2.000099 -0.000001 -2.000100
v 2.000099 2.000001 -2.000100
v 0.000101 -0.000001 -1.000200
v 0.000101 1.000000 -0.000300
v 0.000101 2.000001 -1.000200
v 0.000101 1.000000 -2.000100
v 1.000100 -0.000001 -2.000100
v 1.000100 2.000001 -2.000100
v 2.000099 1.000000 -2.000100
v 2.000099 -0.000001 -1.000200
v 2.000099 2.000001 -1.000200
v 2.000099 1.000000 -0.000300
v 1.000100 -0.000001 -0.000300
v 1.000100 2.000001 -0.000300
vn -0.0000 -0.0000 -1.0000
vn -0.0000 -0.0000 1.0000
vn -1.0000 -0.0000 -0.0000
vn -0.0000 -1.0000 -0.0000
vn 1.0000 -0.0000 -0.0000
vn -0.0000 1.0000 -0.0000
vt 0.000000 0.625000
vt 0.125000 0.500000
vt 0.250000 0.625000
vt 0.500000 0.875000
vt 0.625000 0.750000
vt 0.750000 0.875000
vt 0.125000 0.500000
vt 0.000000 0.375000
vt 0.125000 0.250000
vt 0.250000 0.375000
vt 0.250000 0.500000
vt 0.000000 0.500000
vt 0.000000 0.250000
vt 0.250000 0.250000
vt 0.125000 0.750000
vt 0.000000 0.750000
vt 0.250000 0.500000
vt 0.250000 0.750000
vt 0.625000 1.000000
vt 0.500000 1.000000
vt 0.500000 0.750000
vt 0.750000 0.750000
vt 0.750000 1.000000
s 0
usemtl Material
f 96/221/30 94/222/30 93/223/30
f 91/221/31 100/222/31 99/223/31
f 93/221/32 90/222/32 91/223/32
f 100/224/33 90/225/33 94/226/33
f 99/221/34 97/222/34 96/223/34
f 101/227/35 98/228/35 95/229/35
f 92/230/35 83/231/35 101/227/35
f 101/227/35 87/232/35 98/228/35
f 98/228/35 89/233/35 95/229/35
f 95/229/35 85/234/35 92/230/35
f 92/230/35 101/227/35 95/229/35
f 98/235/34 87/236/34 99/221/34
f 99/221/34 86/232/34 97/222/34
f 97/222/34 88/237/34 96/223/34
f 96/223/34 89/238/34 98/235/34
f 98/235/34 99/221/34 96/223/34
f 101/235/31 83/236/31 91/221/31
f 91/221/31 82/232/31 100/222/31
f 100/222/31 86/237/31 99/223/31
f 99/223/31 87/238/31 101/235/31
f 101/235/31 91/221/31 99/223/31
f 95/235/30 89/236/30 96/221/30
f 96/221/30 88/232/30 94/222/30
f 94/222/30 84/237/30 93/223/30
f 93/223/30 85/238/30 95/235/30
f 95/235/30 96/221/30 93/223/30
f 92/235/32 85/236/32 93/221/32
f 93/221/32 84/232/32 90/222/32
f 90/222/32 82/237/32 91/223/32
f 91/223/32 83/238/32 92/235/32
f 92/235/32 93/221/32 91/223/32
f 97/239/33 86/240/33 100/224/33
f 100/224/33 82/241/33 90/225/33
f 90/225/33 84/242/33 94/226/33
f 94/226/33 88/243/33 97/239/33
f 97/239/33 100/224/33 94/226/33
o RS_holder_2.001
v 1.400263 0.000000 0.800000
v 1.400263 1.000000 0.800000
v 1.400263 1.000000 0.400000
v 1.200043 1.000000 0.800000
v 1.200043 1.000000 0.400000
v 1.400263 0.500000 0.600000
v 1.400263 0.000000 0.599617
v 1.400263 0.500000 0.800000
v 1.400000 0.500000 0.400000
v 1.400263 0.500000 0.400000
v 1.300153 0.500000 0.400000
v 1.200043 0.500000 0.600000
v 1.200043 0.500000 0.400000
v 1.300153 0.500000 0.800000
v 1.200043 0.500000 0.800000
v 1.400263 0.500000 0.400263
v 1.333426 0.000000 0.666474
vn 1.0000 -0.0000 -0.0000
vn -0.0000 -0.0000 -1.0000
vn -1.0000 -0.0000 -0.0000
vn -0.0000 -0.0000 1.0000
vn -0.0000 -1.0000 -0.0000
vn -0.0000 1.0000 -0.0000
vt 0.660004 0.483452
vt 0.641475 0.357236
vt 0.641475 0.483452
vt 0.679477 0.330444
vt 0.679508 0.469661
vt 0.691509 0.469661
vt 0.640729 0.483508
vt 0.659904 0.483508
vt 0.640729 0.358090
vt 0.691541 0.469664
vt 0.679662 0.329607
vt 0.679662 0.469664
vt 0.875000 0.500000
vt 0.625000 0.750000
vt 0.625000 0.500000
vt 0.703420 0.329607
vt 0.703420 0.469664
vt 0.679080 0.358090
vt 0.679080 0.483508
vt 0.678534 0.357236
vt 0.678510 0.483452
vt 0.875000 0.750000
vt 0.703542 0.330444
vt 0.700170 0.924745
vt 0.700137 0.924745
vt 0.700137 0.924778
vt 0.712632 0.924745
vt 0.700137 0.949688
vt 0.725127 0.974632
vt 0.925871 0.597398
vt 0.925871 0.572751
vt 0.917454 0.580975
vt 0.679477 0.469661
vt 0.678534 0.483452
vt 0.703542 0.469661
vt 0.725127 0.949688
vt 0.725127 0.924745
vt 0.700137 0.924778
vt 0.700137 0.974632
vt 0.712632 0.974632
s 0
usemtl Material.003
f 107/244/36 103/245/36 109/246/36
f 104/247/37 110/248/37 112/249/37
f 114/250/38 113/251/38 106/252/38
f 115/253/39 105/254/39 116/255/39
f 104/256/40 105/257/40 106/258/40
f 103/259/39 115/253/39 109/260/39
f 105/261/38 113/251/38 116/262/38
f 104/263/36 107/244/36 117/264/36
f 104/256/40 103/265/40 105/257/40
f 112/249/37 106/266/37 104/247/37
f 110/267/40 111/268/40 117/269/40
f 112/270/40 107/271/40 116/272/40
f 102/273/41 108/274/41 118/275/41
f 104/247/37 111/276/37 110/248/37
f 103/259/39 105/254/39 115/253/39
f 105/261/38 106/252/38 113/251/38
f 117/264/36 111/277/36 104/263/36
f 104/263/36 103/245/36 107/244/36
f 112/249/37 114/278/37 106/266/37
f 113/279/40 114/280/40 112/270/40
f 112/270/40 110/267/40 117/281/40
f 107/271/40 109/282/40 115/283/40
f 112/270/40 117/281/40 107/271/40
f 116/272/40 113/279/40 112/270/40
f 107/271/40 115/283/40 116/272/40
